<?xml version="1.0" encoding="UTF-8" standalone="no"?> <svg xmlns="http://www.w3.org/2000/svg" viewBox="0 0 512 512"><g id="flat"><path d="M461.47,221.1l-9.5,15.83a113.939,113.939,0,0,0-16.24,58.64V432h-32V256a354.043,354.043,0,0,0-95.58,134.96L291.73,432l-75.56,3.78A607.25,607.25,0,0,1,49.35,420.99l-1.36-.32a26.128,26.128,0,0,1-1.92-50.4L155.73,336a127.84,127.84,0,0,0,109.32-61.57L387.74,84.38a27.048,27.048,0,0,1,37.28-8.13,26.6,26.6,0,0,1,4.81,3.92A26.977,26.977,0,0,1,435,87.66l27.27,58.78A73.883,73.883,0,0,1,461.47,221.1Z" style="fill:#dc4d41"/><path d="M431.994,212.612a8,8,0,0,1-6.394-12.8,30.2,30.2,0,0,0,1.743-33.79,8,8,0,0,1,13.72-8.232,46.141,46.141,0,0,1-2.663,51.622A7.987,7.987,0,0,1,431.994,212.612Z" style="fill:#f55648"/><path d="M171.73,408h-32.5a152.508,152.508,0,0,1-48.324-7.843l-1.7-.567a8,8,0,0,1,5.056-15.18l1.706.569A136.558,136.558,0,0,0,139.23,392h32.5a8,8,0,1,1,0,16Z" style="fill:#f55648"/><rect x="403.73" y="400" width="32" height="32" style="fill:#6f7478"/><rect x="403.73" y="416" width="32" height="16" style="fill:#62666a"/><path d="M284.27,24l-8.9,17.8A47.642,47.642,0,0,1,254.066,63.1L236.27,72l17.8,8.9A47.642,47.642,0,0,1,275.372,102.2l8.9,17.8,8.9-17.8A47.642,47.642,0,0,1,314.474,80.9l17.8-8.9-17.8-8.9A47.642,47.642,0,0,1,293.168,41.8Z" style="fill:#f3af3e"/><path d="M200,136l-5.932,11.864a31.754,31.754,0,0,1-14.2,14.2L168,168l11.864,5.932a31.754,31.754,0,0,1,14.2,14.2L200,200l5.932-11.864a31.754,31.754,0,0,1,14.2-14.2L232,168l-11.864-5.932a31.754,31.754,0,0,1-14.2-14.2Z" style="fill:#fbb540"/><path d="M429.83,80.17l-47.81,66.2A671.047,671.047,0,0,0,300.6,296.05l-13.32,34.26a55.968,55.968,0,0,1-74.91,30.86L155.73,336a127.84,127.84,0,0,0,109.32-61.57L387.74,84.38a27.048,27.048,0,0,1,37.28-8.13A26.6,26.6,0,0,1,429.83,80.17Z" style="fill:#b94137"/></g></svg>