<?xml version="1.0" encoding="utf-8"?>
<!-- Generator: Adobe Illustrator 21.0.0, SVG Export Plug-In . SVG Version: 6.00 Build 0)  -->
<svg version="1.1" id="Livello_1" xmlns="http://www.w3.org/2000/svg" xmlns:xlink="http://www.w3.org/1999/xlink" x="0px" y="0px"
	 viewBox="0 0 100 100" style="enable-background:new 0 0 100 100;" xml:space="preserve">
<style type="text/css">
	.st0{fill:none;}
	.st1{fill:#EFD8A3;}
	.st2{fill:#E5CA95;}
	.st3{fill:#D8BA87;}
	.st4{fill:#F4E1BA;}
	.st5{fill:#CC5A32;}
	.st6{fill:#B24524;}
	.st7{fill:#C19F40;}
	.st8{fill:#6B281D;}
	.st9{fill:#9E7F33;}
</style>
<g>
	<rect class="st0" width="100" height="100"/>
</g>
<g>
	<circle class="st1" cx="27.3" cy="33.1" r="3.8"/>
	<circle class="st1" cx="35.6" cy="34.2" r="3.8"/>
	<circle class="st2" cx="44.4" cy="30.4" r="3.8"/>
	<circle class="st3" cx="48.9" cy="31.7" r="3.8"/>
	<circle class="st3" cx="33.1" cy="33.7" r="3.8"/>
	<circle class="st3" cx="67.5" cy="33.1" r="3.8"/>
	<circle class="st3" cx="58.2" cy="31.7" r="3.8"/>
	<circle class="st1" cx="52.8" cy="33.6" r="3.8"/>
	<circle class="st2" cx="62" cy="31.3" r="3.8"/>
	<circle class="st1" cx="71.8" cy="33.1" r="3.8"/>
	<circle class="st1" cx="68" cy="28.5" r="3.8"/>
	<circle class="st1" cx="57.7" cy="29.8" r="3.8"/>
	<circle class="st1" cx="49.4" cy="26" r="3.8"/>
	<circle class="st1" cx="40.5" cy="29.8" r="3.8"/>
	<circle class="st2" cx="32.5" cy="29.3" r="3.8"/>
	<circle class="st1" cx="38.7" cy="24.1" r="3.8"/>
	<circle class="st4" cx="46.4" cy="23.5" r="3.8"/>
	<circle class="st2" cx="55.9" cy="24.7" r="3.8"/>
	<circle class="st1" cx="62.4" cy="24.7" r="3.8"/>
	<circle class="st1" cx="52.8" cy="20.8" r="3.8"/>
	<polygon class="st5" points="50.6,36.7 49.4,36.7 22.7,36.7 27.2,83 49.4,83 50.6,83 72.8,83 77.3,36.7 	"/>
	<path class="st6" d="M79.4,40.7H20.6c-0.5,0-1-0.4-1-1v-4.6c0-0.5,0.5-1,1-1h58.9c0.5,0,1,0.5,1,1v4.6C80.4,40.3,80,40.7,79.4,40.7
		z"/>
	<g>
		<polygon class="st7" points="35.4,40.7 37.5,83 45.4,83 45.4,40.7 		"/>
		<polygon class="st7" points="64.6,40.7 62.5,83 54.6,83 54.6,40.7 		"/>
	</g>
	<polygon class="st8" points="23.1,40.7 23.4,43.9 76.6,43.9 76.9,40.7 	"/>
	<circle class="st9" cx="50" cy="59.9" r="9.6"/>
</g>
</svg>
